<?xml version="1.0" standalone="no"?>
<svg xmlns:xlink="http://www.w3.org/1999/xlink" id="wave" style="transform:rotate(0deg); transition: 0.3s" viewBox="0 0 1440 490" version="1.1" xmlns="http://www.w3.org/2000/svg"><defs><linearGradient id="sw-gradient-0" x1="0" x2="0" y1="1" y2="0"><stop stop-color="rgba(243, 212.599, 62, 1)" offset="0%"/><stop stop-color="rgba(255, 179, 11, 1)" offset="100%"/></linearGradient></defs><path style="transform:translate(0, 0px); opacity:1" fill="url(#sw-gradient-0)" d="M0,343L80,294C160,245,320,147,480,89.8C640,33,800,16,960,57.2C1120,98,1280,196,1440,236.8C1600,278,1760,261,1920,269.5C2080,278,2240,310,2400,318.5C2560,327,2720,310,2880,294C3040,278,3200,261,3360,253.2C3520,245,3680,245,3840,212.3C4000,180,4160,114,4320,89.8C4480,65,4640,82,4800,147C4960,212,5120,327,5280,310.3C5440,294,5600,147,5760,138.8C5920,131,6080,261,6240,334.8C6400,408,6560,425,6720,408.3C6880,392,7040,343,7200,318.5C7360,294,7520,294,7680,318.5C7840,343,8000,392,8160,367.5C8320,343,8480,245,8640,236.8C8800,229,8960,310,9120,318.5C9280,327,9440,261,9600,269.5C9760,278,9920,359,10080,367.5C10240,376,10400,310,10560,285.8C10720,261,10880,278,11040,310.3C11200,343,11360,392,11440,416.5L11520,441L11520,490L11440,490C11360,490,11200,490,11040,490C10880,490,10720,490,10560,490C10400,490,10240,490,10080,490C9920,490,9760,490,9600,490C9440,490,9280,490,9120,490C8960,490,8800,490,8640,490C8480,490,8320,490,8160,490C8000,490,7840,490,7680,490C7520,490,7360,490,7200,490C7040,490,6880,490,6720,490C6560,490,6400,490,6240,490C6080,490,5920,490,5760,490C5600,490,5440,490,5280,490C5120,490,4960,490,4800,490C4640,490,4480,490,4320,490C4160,490,4000,490,3840,490C3680,490,3520,490,3360,490C3200,490,3040,490,2880,490C2720,490,2560,490,2400,490C2240,490,2080,490,1920,490C1760,490,1600,490,1440,490C1280,490,1120,490,960,490C800,490,640,490,480,490C320,490,160,490,80,490L0,490Z"/><defs><linearGradient id="sw-gradient-1" x1="0" x2="0" y1="1" y2="0"><stop stop-color="rgba(246.32, 238.755, 13.298, 1)" offset="0%"/><stop stop-color="rgba(255, 179, 11, 1)" offset="100%"/></linearGradient></defs><path style="transform:translate(0, 50px); opacity:0.9" fill="url(#sw-gradient-1)" d="M0,294L80,302.2C160,310,320,327,480,302.2C640,278,800,212,960,220.5C1120,229,1280,310,1440,359.3C1600,408,1760,425,1920,400.2C2080,376,2240,310,2400,310.3C2560,310,2720,376,2880,343C3040,310,3200,180,3360,130.7C3520,82,3680,114,3840,138.8C4000,163,4160,180,4320,155.2C4480,131,4640,65,4800,40.8C4960,16,5120,33,5280,40.8C5440,49,5600,49,5760,114.3C5920,180,6080,310,6240,318.5C6400,327,6560,212,6720,187.8C6880,163,7040,229,7200,269.5C7360,310,7520,327,7680,318.5C7840,310,8000,278,8160,245C8320,212,8480,180,8640,147C8800,114,8960,82,9120,57.2C9280,33,9440,16,9600,49C9760,82,9920,163,10080,212.3C10240,261,10400,278,10560,245C10720,212,10880,131,11040,155.2C11200,180,11360,310,11440,375.7L11520,441L11520,490L11440,490C11360,490,11200,490,11040,490C10880,490,10720,490,10560,490C10400,490,10240,490,10080,490C9920,490,9760,490,9600,490C9440,490,9280,490,9120,490C8960,490,8800,490,8640,490C8480,490,8320,490,8160,490C8000,490,7840,490,7680,490C7520,490,7360,490,7200,490C7040,490,6880,490,6720,490C6560,490,6400,490,6240,490C6080,490,5920,490,5760,490C5600,490,5440,490,5280,490C5120,490,4960,490,4800,490C4640,490,4480,490,4320,490C4160,490,4000,490,3840,490C3680,490,3520,490,3360,490C3200,490,3040,490,2880,490C2720,490,2560,490,2400,490C2240,490,2080,490,1920,490C1760,490,1600,490,1440,490C1280,490,1120,490,960,490C800,490,640,490,480,490C320,490,160,490,80,490L0,490Z"/></svg>