<?xml version="1.0" standalone="no"?><svg xmlns="http://www.w3.org/2000/svg" viewBox="0 0 1440 320"><path fill="#efb810" fill-opacity="1" d="M0,32L34.3,53.3C68.6,75,137,117,206,138.7C274.3,160,343,160,411,154.7C480,149,549,139,617,160C685.7,181,754,235,823,266.7C891.4,299,960,309,1029,272C1097.1,235,1166,149,1234,149.3C1302.9,149,1371,235,1406,277.3L1440,320L1440,0L1405.7,0C1371.4,0,1303,0,1234,0C1165.7,0,1097,0,1029,0C960,0,891,0,823,0C754.3,0,686,0,617,0C548.6,0,480,0,411,0C342.9,0,274,0,206,0C137.1,0,69,0,34,0L0,0Z"></path></svg>